<svg width="106" height="132" viewBox="0 0 106 132" fill="none" xmlns="http://www.w3.org/2000/svg">
<path d="M53.0135 54.137V70.5249H53.3109C58.7447 70.4978 64.0704 69.0845 68.8014 66.4212C68.9636 66.3396 69.1528 66.2309 69.315 66.1222C76.8845 61.7195 82.3994 54.4632 84.5892 45.9295C85.265 43.2661 85.6165 40.4941 85.6165 37.7491V21.3884H69.315V37.7763C69.288 46.7992 62.0158 54.137 53.0135 54.137Z" fill="#FFC600"/>
<path d="M36.7121 21.3884H20.4106V37.7763H36.7121V21.3884Z" fill="#FFC600"/>
<path d="M20.4106 37.7491V54.137C20.4106 72.2099 34.9819 86.8856 52.9595 86.8856H52.9865V70.4977H52.7162C43.822 70.3346 36.7121 63.0511 36.7121 54.1098H53.0135V37.7219H20.4106V37.7491Z" fill="#00B5E2"/>
<path d="M77.4522 78.7053C77.4792 96.7782 62.908 111.454 44.9304 111.481C44.9034 111.481 44.8763 111.481 44.8763 111.481V95.0932H45.1737C54.0679 94.9302 61.1778 87.6466 61.1778 78.7053H77.4522Z" fill="#FFC600"/>
</svg>
